<svg width="20" height="20" viewBox="0 0 20 20" fill="none" xmlns="http://www.w3.org/2000/svg">
<g clip-path="url(#clip0_2104_2311)">
<path d="M11.4999 19.8676V12.9412H13.8087L14.2499 10.0588H11.4999V8.20586C11.4999 7.41174 11.8822 6.64704 13.1175 6.64704H14.3675V4.20586C13.6126 4.0784 12.8724 4.01468 12.1469 4.01468C9.88224 4.01468 8.39694 5.39704 8.39694 7.88233V10.0588H5.88224V12.9412H8.39694V19.8676C3.66165 19.1323 0.0292969 15.0147 0.0292969 10.0588C0.0292969 4.58821 4.47047 0.132324 9.95577 0.132324C15.4264 0.132324 19.8822 4.58821 19.8822 10.0588C19.8822 15.0147 16.2499 19.1323 11.4999 19.8676Z" fill="#4676ED"/>
<path d="M11.5 12.9412V19.8677C11 19.946 10.4853 19.9853 9.95585 19.9853C9.42644 19.9853 8.90684 19.946 8.39703 19.8677V12.9412H5.88232V10.0588H8.39703V7.88236C8.39703 5.39706 9.88232 4.01471 12.147 4.01471C12.8725 4.01471 13.6127 4.07843 14.3676 4.20589V6.64706H13.1176C11.8823 6.64706 11.5 7.41177 11.5 8.20589V10.0588H14.25L13.8088 12.9412H11.5Z" fill="white"/>
</g>
<defs>
<clipPath id="clip0_2104_2311">
<rect width="20" height="20" fill="white"/>
</clipPath>
</defs>
</svg>
