<svg width="20" height="20" viewBox="0 0 20 20" fill="none" xmlns="http://www.w3.org/2000/svg">
<g clip-path="url(#clip0_2126_2322)">
<path d="M9.97066 19.8824C4.50007 19.8824 0.0441895 15.4265 0.0441895 9.95589C0.0441895 4.47059 4.50007 0.0294189 9.97066 0.0294189C15.456 0.0294189 19.8971 4.47059 19.8971 9.95589C19.8971 15.4265 15.456 19.8824 9.97066 19.8824Z" fill="url(#paint0_linear_2126_2322)"/>
<path d="M6.80877 9.83824L13.3676 6.76471L10.7499 11.7941C9.19112 13.4216 8.35778 14.2353 8.24994 14.2353C8.1421 14.2353 8.03916 14.1373 7.94112 13.9412L6.76465 10.6765L6.80877 9.83824Z" fill="#C8DAEA"/>
<path d="M10.1912 12.6029C9.72061 12.9853 9.24021 13.4216 8.75002 13.9118C8.25983 14.402 8.04414 14.402 8.10296 13.9118L8.32355 11.5147L10.1912 12.6029Z" fill="#A9C6D8"/>
<path d="M6.79424 10.7941L4.36777 10C4.1717 9.92157 4.10796 9.79413 4.17659 9.61766C4.1913 9.55883 4.23542 9.5147 4.33836 9.44117C4.70111 9.18627 8.01483 7.93138 14.2795 5.67648C14.456 5.61765 14.5982 5.60785 14.706 5.64707C14.7795 5.67648 14.8237 5.70589 14.8531 5.82354C14.8678 5.86765 14.8825 5.95589 14.8825 6.04413C14.8825 6.10295 14.8678 6.16177 14.8678 6.25001C14.8285 6.86765 14.2354 9.4706 13.0884 14.0588C13.0295 14.3333 12.8776 14.4755 12.6325 14.4853C12.4854 14.4853 12.3237 14.4559 12.1325 14.2941C11.4119 13.6765 8.92659 12 8.36777 11.6324C8.33836 11.6029 8.33836 11.5882 8.32365 11.5588C8.32365 11.5294 8.33836 11.5 8.36777 11.4706C11.2599 8.90196 12.7403 7.48039 12.8089 7.20589C12.8237 7.17648 12.7942 7.16177 12.7501 7.17648C12.456 7.27942 7.47071 10.4412 6.91189 10.7794C6.89228 10.799 6.85306 10.8039 6.79424 10.7941Z" fill="white"/>
</g>
<defs>
<linearGradient id="paint0_linear_2126_2322" x1="-0.249928" y1="19.8824" x2="-0.249928" y2="0.0294189" gradientUnits="userSpaceOnUse">
<stop stop-color="#1D93D2"/>
<stop offset="1" stop-color="#38B0E3"/>
</linearGradient>
<clipPath id="clip0_2126_2322">
<rect width="20" height="20" fill="white"/>
</clipPath>
</defs>
</svg>
