<svg width="20" height="20" viewBox="0 0 20 20" fill="none" xmlns="http://www.w3.org/2000/svg">
<g clip-path="url(#clip0_2126_2317)">
<path d="M19.9135 10C19.9135 15.467 15.4752 19.92 9.99349 19.92C4.51177 19.92 0.0734863 15.467 0.0734863 10C0.0734863 4.5183 4.51177 0.0800171 9.99349 0.0800171C15.4752 0.0800171 19.9135 4.5183 19.9135 10Z" fill="#DA0000"/>
<path fill-rule="evenodd" clip-rule="evenodd" d="M16.6068 10C16.6068 11.4304 16.5138 12.4886 16.3276 13.1744C16.1806 13.7476 15.725 14.1884 15.1666 14.3501C14.4709 14.5363 12.7466 14.6293 9.99346 14.6293C7.24036 14.6293 5.51598 14.5363 4.82036 14.3501C4.2619 14.1884 3.80632 13.7476 3.65936 13.1744C3.47321 12.4886 3.38013 11.4304 3.38013 10C3.38013 8.55976 3.47321 7.49674 3.65936 6.8109C3.80632 6.23775 4.2619 5.79686 4.82036 5.6352C5.51598 5.45884 7.24036 5.37067 9.99346 5.37067C12.7466 5.37067 14.4709 5.45884 15.1666 5.6352C15.725 5.79686 16.1806 6.23775 16.3276 6.8109C16.5138 7.49674 16.6068 8.55976 16.6068 10ZM12.1097 10L8.67079 8.016V11.984L12.1097 10Z" fill="white"/>
</g>
<defs>
<clipPath id="clip0_2126_2317">
<rect width="19.987" height="19.84" fill="white" transform="translate(0 0.0800171)"/>
</clipPath>
</defs>
</svg>
